<svg width="1332" height="142" viewBox="0 0 1332 142" fill="none" xmlns="http://www.w3.org/2000/svg">
<path d="M80.27 172.501C63.71 172.501 49.4116 168.897 37.375 161.691C25.415 154.484 16.1766 144.402 9.65998 131.446C3.21998 118.489 -2.41399e-05 103.424 -2.41399e-05 86.2508C-2.41399e-05 69.0774 3.21998 54.0124 9.65998 41.0558C16.1766 28.0991 25.415 18.0174 37.375 10.8108C49.4116 3.60411 63.71 0.00077796 80.27 0.00077796C99.2833 0.00077796 115.23 4.71577 128.11 14.1458C141.067 23.5758 150.19 36.3408 155.48 52.4408L123.97 61.1808C120.903 51.1374 115.728 43.3558 108.445 37.8358C101.162 32.2391 91.77 29.4408 80.27 29.4408C69.7666 29.4408 60.9883 31.7791 53.935 36.4558C46.9583 41.1324 41.7066 47.7258 38.18 56.2358C34.6533 64.7458 32.89 74.7508 32.89 86.2508C32.89 97.7508 34.6533 107.756 38.18 116.266C41.7066 124.776 46.9583 131.369 53.935 136.046C60.9883 140.722 69.7666 143.061 80.27 143.061C91.77 143.061 101.162 140.262 108.445 134.666C115.728 129.069 120.903 121.287 123.97 111.321L155.48 120.061C150.19 136.161 141.067 148.926 128.11 158.356C115.23 167.786 99.2833 172.501 80.27 172.501ZM187.702 169.051V3.45077H218.982V71.5308H293.042V3.45077H324.322V169.051H293.042V100.741H218.982V169.051H187.702ZM352.008 169.051L402.608 3.45077H449.298L499.898 169.051H467.698L422.618 23.0008H428.598L384.208 169.051H352.008ZM382.368 134.551V105.341H469.768V134.551H382.368ZM529.71 169.051V3.45077H560.99V169.051H529.71ZM602.366 169.051V3.45077H634.106L706.096 113.851V3.45077H737.836V169.051H706.096L634.106 58.6508V169.051H602.366ZM776.825 169.051V3.45077H846.745C848.355 3.45077 850.502 3.52744 853.185 3.68077C855.945 3.75744 858.398 3.98744 860.545 4.37078C870.435 5.90411 878.523 9.16244 884.81 14.1458C891.173 19.1291 895.85 25.4158 898.84 33.0058C901.83 40.5191 903.325 48.9141 903.325 58.1908C903.325 67.4674 901.792 75.9008 898.725 83.4908C895.735 91.0041 891.058 97.2524 884.695 102.236C878.408 107.219 870.358 110.477 860.545 112.011C858.398 112.317 855.945 112.547 853.185 112.701C850.425 112.854 848.278 112.931 846.745 112.931H808.105V169.051H776.825ZM808.105 83.7208H845.365C846.975 83.7208 848.738 83.6441 850.655 83.4908C852.572 83.3374 854.335 83.0308 855.945 82.5708C860.162 81.4208 863.42 79.5041 865.72 76.8208C868.02 74.0608 869.592 71.0324 870.435 67.7358C871.355 64.3624 871.815 61.1808 871.815 58.1908C871.815 55.2008 871.355 52.0574 870.435 48.7608C869.592 45.3874 868.02 42.3591 865.72 39.6758C863.42 36.9158 860.162 34.9608 855.945 33.8108C854.335 33.3508 852.572 33.0441 850.655 32.8908C848.738 32.7374 846.975 32.6608 845.365 32.6608H808.105V83.7208ZM910.36 169.051L960.96 3.45077H1007.65L1058.25 169.051H1026.05L980.97 23.0008H986.95L942.56 169.051H910.36ZM940.72 134.551V105.341H1028.12V134.551H940.72ZM1112.54 169.051V101.661L1055.96 3.45077H1092.53L1128.41 65.7808L1164.29 3.45077H1200.86L1144.28 101.661V169.051H1112.54ZM1223.83 169.051V3.45077H1331.93V32.6608H1255.11V68.0808H1318.13V97.2908H1255.11V139.841H1331.93V169.051H1223.83Z" fill="#CBD8F8"/>
</svg>
