<svg width="618" height="400" viewBox="0 0 618 400" fill="none" xmlns="http://www.w3.org/2000/svg">
<g clip-path="url(#clip0_457_6597)">
<path d="M0 24C0 10.7452 10.7452 0 24 0H594C607.255 0 618 10.7452 618 24V376C618 389.255 607.255 400 594 400H24C10.7452 400 0 389.255 0 376V24Z" fill="#F5F5F5"/>
<circle cx="323.312" cy="227.927" r="199.349" stroke="url(#paint0_linear_457_6597)" stroke-width="15"/>
<path d="M230.731 217.22C228.257 208.737 233.13 199.854 241.613 197.381L404.83 149.797C413.313 147.324 422.195 152.196 424.669 160.68L456.275 269.092C458.748 277.576 453.876 286.458 445.393 288.931L282.176 336.515C273.692 338.988 264.81 334.116 262.337 325.632L230.731 217.22Z" fill="#9B5427"/>
<g clip-path="url(#clip1_457_6597)">
<path d="M202.312 113.379H266.312V177.379H202.312V113.379Z" fill="#012169"/>
<path d="M266.312 113.379V121.379L242.562 145.379L266.312 168.754V177.379H257.937L234.062 153.879L210.812 177.379H202.312V168.879L225.562 145.504L202.312 122.629V113.379H210.062L234.062 136.879L257.312 113.379H266.312Z" fill="white"/>
<path d="M225.312 153.879L226.687 158.129L207.562 177.379H202.312V177.004L225.312 153.879ZM240.812 152.379L247.562 153.379L266.312 171.754V177.379L240.812 152.379ZM266.312 113.379L242.312 137.879L241.812 132.379L260.562 113.379H266.312ZM202.312 113.504L226.437 137.129L219.062 136.129L202.312 119.504V113.504Z" fill="#C8102E"/>
<path d="M224.312 113.379V177.379H244.312V113.379H224.312ZM202.312 135.379V155.379H266.312V135.379H202.312Z" fill="white"/>
<path d="M202.312 139.379V151.379H266.312V139.379H202.312ZM228.312 113.379V177.379H240.312V113.379H228.312Z" fill="#C8102E"/>
</g>
<g clip-path="url(#clip2_457_6597)">
<path d="M259.312 120.379H323.312V184.379H259.312" fill="#BD3D44"/>
<path d="M259.312 127.629H323.312H259.312ZM259.312 137.504H323.312H259.312ZM259.312 147.379H323.312H259.312ZM259.312 157.254H323.312H259.312ZM259.312 167.129H323.312H259.312ZM259.312 177.004H323.312H259.312Z" fill="black"/>
<path d="M259.312 127.629H323.312M259.312 137.504H323.312M259.312 147.379H323.312M259.312 157.254H323.312M259.312 167.129H323.312M259.312 177.004H323.312" stroke="white" stroke-width="5"/>
<path d="M259.312 120.379H308.062V154.754H259.312V120.379Z" fill="#192F5D"/>
</g>
<g clip-path="url(#clip3_457_6597)">
<path fill-rule="evenodd" clip-rule="evenodd" d="M311.503 134.215H375.503V198.215H311.503V134.215Z" fill="white"/>
<path fill-rule="evenodd" clip-rule="evenodd" d="M354.163 134.215H375.503V198.215H354.163V134.215ZM311.503 134.215H332.833V198.215H311.503V134.215Z" fill="#008753"/>
</g>
<path d="M231.623 219.122C229.15 210.639 234.022 201.757 242.506 199.284L402.317 152.693C410.8 150.219 419.682 155.092 422.155 163.575L453.209 270.09C455.682 278.574 450.81 287.456 442.326 289.929L282.515 336.52C274.032 338.993 265.15 334.121 262.676 325.638L231.623 219.122Z" fill="#BC7039"/>
<path d="M389.224 165.717L389.363 166.197L393.148 165.094C394.143 164.804 395.142 164.618 396.135 164.53L396.09 164.032C398.222 163.843 400.326 164.09 402.296 164.713L402.146 165.189C404.086 165.803 405.891 166.793 407.451 168.099L407.77 167.716C409.354 169.042 410.692 170.685 411.679 172.583L411.237 172.814C411.697 173.699 412.077 174.641 412.367 175.636L413.455 179.366L413.935 179.226L416.11 186.688L415.63 186.828L417.805 194.29L418.285 194.15L420.461 201.612L419.981 201.752L422.156 209.214L422.636 209.074L424.812 216.535L424.332 216.675L426.507 224.137L426.987 223.997L429.162 231.459L428.682 231.599L430.858 239.061L431.338 238.921L433.513 246.383L433.033 246.523L435.209 253.984L435.689 253.845L437.864 261.306L437.384 261.446L438.472 265.178C438.762 266.172 438.947 267.172 439.036 268.165L439.532 268.12C439.721 270.251 439.474 272.356 438.851 274.326L438.376 274.175C437.763 276.115 436.772 277.921 435.466 279.48L435.848 279.8C434.522 281.384 432.88 282.723 430.98 283.709L430.752 283.267C429.867 283.726 428.924 284.107 427.93 284.396L424.145 285.5L424.285 285.98L416.715 288.187L416.575 287.707L409.006 289.913L409.146 290.393L401.577 292.6L401.437 292.12L393.868 294.327L394.008 294.807L386.438 297.013L386.298 296.533L378.73 298.74L378.87 299.22L371.3 301.427L371.16 300.947L363.591 303.153L363.731 303.633L356.162 305.84L356.022 305.36L348.453 307.567L348.593 308.047L341.023 310.254L340.883 309.774L333.314 311.98L333.454 312.46L325.885 314.667L325.745 314.187L318.175 316.394L318.315 316.874L310.747 319.08L310.607 318.6L303.037 320.807L303.177 321.287L295.608 323.494L295.468 323.014L291.684 324.117C290.689 324.407 289.69 324.593 288.697 324.681L288.74 325.177C286.608 325.366 284.504 325.12 282.535 324.497L282.686 324.021C280.746 323.408 278.941 322.418 277.381 321.112L277.06 321.494C275.476 320.167 274.137 318.525 273.151 316.626L273.595 316.397C273.193 315.623 272.851 314.804 272.578 313.946L272.465 313.575L271.377 309.844L270.897 309.984L268.722 302.522L269.202 302.382L267.026 294.92L266.546 295.06L264.371 287.598L264.851 287.458L262.675 279.996L262.195 280.136L260.02 272.674L260.5 272.534L258.325 265.073L257.845 265.213L255.669 257.751L256.149 257.611L253.974 250.149L253.494 250.289L251.318 242.827L251.798 242.687L249.623 235.225L249.143 235.365L246.968 227.903L247.448 227.764L246.36 224.033C246.07 223.039 245.884 222.039 245.796 221.046L245.299 221.089C245.12 219.067 245.332 217.07 245.886 215.188L245.98 214.884L246.456 215.035C247.069 213.096 248.06 211.29 249.366 209.731L248.982 209.41C250.309 207.826 251.951 206.488 253.85 205.502L254.08 205.944C254.965 205.485 255.908 205.104 256.902 204.814L260.687 203.711L260.547 203.231L268.116 201.024L268.256 201.504L275.825 199.298L275.686 198.818L283.254 196.611L283.394 197.091L290.964 194.884L290.824 194.404L298.393 192.198L298.533 192.678L306.102 190.471L305.962 189.991L313.532 187.784L313.672 188.264L321.241 186.057L321.101 185.577L328.67 183.37L328.81 183.851L336.379 181.644L336.239 181.164L343.809 178.957L343.948 179.437L351.517 177.231L351.377 176.751L358.947 174.544L359.087 175.024L366.656 172.817L366.516 172.337L374.085 170.13L374.225 170.61L381.794 168.404L381.654 167.924L389.224 165.717Z" stroke="#F8B815" stroke-dasharray="8 8"/>
<path d="M392.715 213.766C390.823 207.415 394.438 200.732 400.79 198.84L440.126 187.123C446.478 185.231 453.161 188.846 455.053 195.198L462.199 219.189C464.091 225.541 460.476 232.224 454.124 234.116L414.788 245.833C408.436 247.725 401.753 244.11 399.861 237.758L392.715 213.766Z" fill="#9B5427"/>
<path d="M398.774 212.079C396.882 205.727 400.498 199.044 406.849 197.152L440.587 187.103C446.939 185.211 453.621 188.826 455.513 195.178L461.777 216.207C463.669 222.558 460.054 229.241 453.702 231.133L419.965 241.183C413.613 243.075 406.93 239.459 405.038 233.108L398.774 212.079Z" fill="#D27D3A"/>
<circle cx="433.075" cy="213.308" r="9.33154" fill="#FFBC28"/>
<g opacity="0.2">
<g clip-path="url(#clip4_457_6597)">
<path d="M58.3286 290.113L82.8806 316.442L56.5518 340.994L31.9999 314.665L58.3286 290.113Z" fill="#006B3F"/>
<path d="M58.3286 290.113L82.8806 316.442L65.3298 332.808L40.7778 306.48L58.3286 290.113Z" fill="#FCD116"/>
<path d="M58.3286 290.113L82.8806 316.442L74.1026 324.628L49.5507 298.299L58.3286 290.113Z" fill="#CE1126"/>
<path d="M61.8268 311.464L55.7154 322.499L54.1674 309.983L62.7702 319.208L50.3974 316.796L61.8268 311.464Z" fill="black"/>
</g>
</g>
<g opacity="0.1">
<g clip-path="url(#clip5_457_6597)">
<mask id="mask0_457_6597" style="mask-type:luminance" maskUnits="userSpaceOnUse" x="556" y="332" width="48" height="49">
<path d="M556 332.809H603.993V380.801H556V332.809Z" fill="white"/>
</mask>
<g mask="url(#mask0_457_6597)">
<path fill-rule="evenodd" clip-rule="evenodd" d="M556 332.809H627.989V347.806H556V332.809Z" fill="#009A00"/>
<path fill-rule="evenodd" clip-rule="evenodd" d="M556 347.805H627.989V349.304H556V347.805Z" fill="white"/>
<path fill-rule="evenodd" clip-rule="evenodd" d="M556 349.305H627.989V364.302H556V349.305Z" fill="black"/>
<path fill-rule="evenodd" clip-rule="evenodd" d="M556 364.305H627.989V365.804H556V364.305Z" fill="white"/>
<path fill-rule="evenodd" clip-rule="evenodd" d="M556 365.805H627.989V380.802H556V365.805Z" fill="#FFCA00"/>
<path fill-rule="evenodd" clip-rule="evenodd" d="M556 332.809V380.801L587.505 356.805L556 332.809Z" fill="#FF0000"/>
<path fill-rule="evenodd" clip-rule="evenodd" d="M574.607 364.023L569.807 360.511L565.018 364.023L566.876 358.373L562.038 354.889L567.998 354.918L569.807 349.258L571.626 354.918L577.577 354.889L572.739 358.373L574.607 364.023Z" fill="#FFCA00"/>
<path fill-rule="evenodd" clip-rule="evenodd" d="M565.637 360.085H569.101C569.382 360.395 570.001 360.521 570.591 360.085C571.675 359.485 573.775 360.085 573.775 360.085L574.191 359.64L573.184 356.341L572.817 355.954C572.817 355.954 572.043 355.489 570.572 355.644C569.101 355.799 568.588 355.586 568.588 355.586C568.588 355.586 567.292 355.741 566.934 355.934L566.518 356.35L565.647 360.095L565.637 360.085Z" fill="white" stroke="black" stroke-width="0.106435" stroke-linecap="round" stroke-linejoin="round"/>
<path d="M566.334 359.223C566.334 359.223 569.643 358.817 570.591 360.085C570.059 360.452 569.585 360.472 569.072 360.104C569.159 359.969 570.262 358.817 573.078 359.204" stroke="black" stroke-width="0.106435" stroke-linecap="round" stroke-linejoin="round"/>
<path d="M569.875 355.926L569.846 359.564M572.817 355.984L573.436 358.867" stroke="black" stroke-width="0.106435"/>
<path d="M566.963 355.934L566.624 357.424" stroke="black" stroke-width="0.106435" stroke-linecap="round" stroke-linejoin="round"/>
<path fill-rule="evenodd" clip-rule="evenodd" d="M563.393 360.48L564.205 361.428C564.302 361.486 564.389 361.486 564.476 361.428L565.676 359.977L566.189 359.358C566.223 359.318 566.25 359.272 566.266 359.222C566.283 359.172 566.29 359.12 566.286 359.067L567.253 358.196C567.331 358.216 567.379 358.226 567.447 358.226C567.36 358.196 567.292 358.158 567.369 358.051L567.582 357.887L567.756 358.1C567.756 358.1 567.515 358.419 567.485 358.419H567.224L566.711 358.874L566.934 359.067L567.273 359.987L567.679 359.696L567.418 358.758L567.998 358.129L567.776 357.79L567.921 357.597C567.921 357.597 569.924 358.854 570.698 358.516C570.717 358.525 570.746 357.616 570.746 357.616C570.746 357.616 568.666 357.403 568.618 356.997C568.569 356.581 569.082 356.532 569.082 356.532L568.859 356.223L568.908 356.048L569.276 356.513L570.088 355.807L574.917 361.312C575.178 361.206 575.236 361.138 575.255 360.877L570.514 355.449L570.882 355.061C570.949 354.984 570.979 354.945 570.979 354.82L571.53 354.336C571.679 354.388 571.806 354.491 571.888 354.626L573.417 353.339C573.456 353.378 573.581 353.417 573.659 353.368L576.174 350.949L573.436 352.884L573.339 352.817C573.339 352.739 573.436 352.72 573.339 352.575C573.233 352.449 573.069 352.701 573.049 352.701C573.03 352.701 572.652 352.565 572.565 352.401L572.546 352.846L571.84 353.494L571.307 353.475L570.533 354.22L570.437 354.51L570.562 354.752C570.562 354.752 570.156 355.11 570.156 355.091C570.156 355.061 570.069 354.984 570.059 354.965L570.417 354.655L570.466 354.433L570.35 354.249C570.311 354.278 569.866 354.752 569.837 354.703L568.55 353.223L568.618 352.952L567.795 352.062C567.505 351.965 567.021 351.946 566.924 352.594C566.857 352.749 566.228 352.613 566.228 352.613L565.899 352.691L563.992 355.39L565.057 356.668L567.224 353.92L567.282 353.146L567.737 353.649C567.892 353.668 568.037 353.668 568.172 353.6L569.459 355.032L569.247 355.245L569.44 355.458L569.653 355.303L569.75 355.429C569.634 355.487 569.556 355.565 569.459 355.623C569.276 355.516 569.111 355.371 569.13 355.149L568.405 355.748L568.376 355.874L566.228 357.655L566.034 357.684L565.986 358.235L567.389 357.074V356.91L567.534 357.026L568.618 356.155C568.618 356.155 568.695 356.252 568.666 356.252C568.637 356.252 567.698 357.122 567.698 357.122L567.679 357.219L567.515 357.364L567.418 357.297L566.112 358.458H565.918L565.192 359.174C565.008 359.193 564.844 359.212 564.689 359.319L563.393 360.48Z" fill="black" stroke="black" stroke-width="0.106435" stroke-linecap="round" stroke-linejoin="round"/>
</g>
</g>
</g>
<g opacity="0.2">
<g clip-path="url(#clip6_457_6597)">
<path d="M19 17.7344H67V65.7344H19V17.7344Z" fill="#003399"/>
<path d="M42.9997 25.3672L42.2886 27.7376L43.4738 27.9746L42.9997 25.3672Z" fill="#FFCC00"/>
<path d="M42.9998 25.3672L43.7109 27.7376L42.5258 27.9746L42.9998 25.3672Z" fill="#FFCC00"/>
<path d="M45.2539 27.0044L42.7798 27.0606L42.9206 28.261L45.2539 27.0044Z" fill="#FFCC00"/>
<path d="M45.2539 27.0034L43.2193 28.4122L42.6276 27.3582L45.2539 27.0034Z" fill="#FFCC00"/>
<path d="M44.393 29.6563L43.575 27.3206L42.4768 27.8255L44.393 29.6563Z" fill="#FFCC00"/>
<path d="M44.3932 29.6562L42.4246 28.1565L43.2441 27.2681L44.3932 29.6562Z" fill="#FFCC00"/>
<path d="M40.7461 27.0044L43.2202 27.0606L43.0794 28.261L40.7461 27.0044Z" fill="#FFCC00"/>
<path d="M40.7461 27.0034L42.7807 28.4122L43.3724 27.3582L40.7461 27.0034Z" fill="#FFCC00"/>
<path d="M41.607 29.6563L42.425 27.3206L43.5232 27.8255L41.607 29.6563Z" fill="#FFCC00"/>
<path d="M41.6068 29.6562L43.5754 28.1565L42.7559 27.2681L41.6068 29.6562Z" fill="#FFCC00"/>
<path d="M43.0002 53.8125L42.2891 56.1829L43.4742 56.4199L43.0002 53.8125Z" fill="#FFCC00"/>
<path d="M42.9998 53.8125L43.7109 56.1829L42.5258 56.4199L42.9998 53.8125Z" fill="#FFCC00"/>
<path d="M45.2539 55.4497L42.7798 55.5059L42.9206 56.7063L45.2539 55.4497Z" fill="#FFCC00"/>
<path d="M45.2539 55.4487L43.2193 56.8575L42.6276 55.8036L45.2539 55.4487Z" fill="#FFCC00"/>
<path d="M44.393 58.1016L43.575 55.7659L42.4768 56.2708L44.393 58.1016Z" fill="#FFCC00"/>
<path d="M44.3932 58.1016L42.4246 56.6019L43.2441 55.7135L44.3932 58.1016Z" fill="#FFCC00"/>
<path d="M40.7461 55.4497L43.2202 55.5059L43.0794 56.7063L40.7461 55.4497Z" fill="#FFCC00"/>
<path d="M40.7461 55.4487L42.7807 56.8575L43.3724 55.8036L40.7461 55.4487Z" fill="#FFCC00"/>
<path d="M41.607 58.1016L42.425 55.7659L43.5232 56.2708L41.607 58.1016Z" fill="#FFCC00"/>
<path d="M41.6068 58.1016L43.5754 56.6019L42.7559 55.7135L41.6068 58.1016Z" fill="#FFCC00"/>
<path d="M28.7775 39.5898L28.0664 41.9602L29.2516 42.1973L28.7775 39.5898Z" fill="#FFCC00"/>
<path d="M28.7777 39.5898L29.4888 41.9602L28.3036 42.1973L28.7777 39.5898Z" fill="#FFCC00"/>
<path d="M31.0322 41.2271L28.5581 41.2833L28.699 42.4837L31.0322 41.2271Z" fill="#FFCC00"/>
<path d="M31.0322 41.226L28.9976 42.6348L28.4059 41.5809L31.0322 41.226Z" fill="#FFCC00"/>
<path d="M30.1713 43.8789L29.3533 41.5433L28.2552 42.0481L30.1713 43.8789Z" fill="#FFCC00"/>
<path d="M30.171 43.8789L28.2024 42.3792L29.0219 41.4908L30.171 43.8789Z" fill="#FFCC00"/>
<path d="M26.5229 41.2271L28.997 41.2833L28.8562 42.4837L26.5229 41.2271Z" fill="#FFCC00"/>
<path d="M26.523 41.226L28.5576 42.6348L29.1493 41.5809L26.523 41.226Z" fill="#FFCC00"/>
<path d="M27.3844 43.8789L28.2024 41.5433L29.3005 42.0481L27.3844 43.8789Z" fill="#FFCC00"/>
<path d="M27.3842 43.8789L29.3527 42.3792L28.5332 41.4908L27.3842 43.8789Z" fill="#FFCC00"/>
<path d="M34.6698 31.6719L36.6384 30.1722L35.8189 29.2838L34.6698 31.6719Z" fill="#FFCC00"/>
<path d="M34.6695 31.6719L35.4875 29.3362L36.5857 29.8411L34.6695 31.6719Z" fill="#FFCC00"/>
<path d="M33.8091 29.019L35.8437 30.4278L36.4354 29.3739L33.8091 29.019Z" fill="#FFCC00"/>
<path d="M33.8091 29.0201L36.2832 29.0762L36.1424 30.2767L33.8091 29.0201Z" fill="#FFCC00"/>
<path d="M36.0632 27.3828L35.3521 29.7532L36.5372 29.9902L36.0632 27.3828Z" fill="#FFCC00"/>
<path d="M36.0633 27.3828L36.7744 29.7532L35.5892 29.9902L36.0633 27.3828Z" fill="#FFCC00"/>
<path d="M37.4566 31.6719L35.4881 30.1722L36.3076 29.2838L37.4566 31.6719Z" fill="#FFCC00"/>
<path d="M37.4569 31.6719L36.639 29.3362L35.5408 29.8411L37.4569 31.6719Z" fill="#FFCC00"/>
<path d="M38.3174 29.019L36.2828 30.4278L35.6911 29.3739L38.3174 29.019Z" fill="#FFCC00"/>
<path d="M38.3174 29.0201L35.8433 29.0762L35.9841 30.2767L38.3174 29.0201Z" fill="#FFCC00"/>
<path d="M32.184 36.9414L31.366 34.6058L30.2678 35.1106L32.184 36.9414Z" fill="#FFCC00"/>
<path d="M32.1837 36.9414L30.2151 35.4417L31.0346 34.5533L32.1837 36.9414Z" fill="#FFCC00"/>
<path d="M29.3974 36.9453L31.3659 35.4456L30.5464 34.5572L29.3974 36.9453Z" fill="#FFCC00"/>
<path d="M29.3976 36.9453L30.2155 34.6097L31.3137 35.1145L29.3976 36.9453Z" fill="#FFCC00"/>
<path d="M28.5362 34.2924L30.5708 35.7012L31.1624 34.6473L28.5362 34.2924Z" fill="#FFCC00"/>
<path d="M28.5361 34.2935L31.0102 34.3497L30.8694 35.5501L28.5361 34.2935Z" fill="#FFCC00"/>
<path d="M33.0444 34.2924L31.0098 35.7012L30.4181 34.6473L33.0444 34.2924Z" fill="#FFCC00"/>
<path d="M33.0445 34.2935L30.5704 34.3497L30.7112 35.5501L33.0445 34.2935Z" fill="#FFCC00"/>
<path d="M30.7904 32.6562L31.5015 35.0266L30.3163 35.2637L30.7904 32.6562Z" fill="#FFCC00"/>
<path d="M30.7902 32.6562L30.0791 35.0266L31.2643 35.2637L30.7902 32.6562Z" fill="#FFCC00"/>
<path d="M33.0474 48.5474L30.5733 48.6036L30.7141 49.804L33.0474 48.5474Z" fill="#FFCC00"/>
<path d="M33.0473 48.5463L31.0127 49.9551L30.4211 48.9012L33.0473 48.5463Z" fill="#FFCC00"/>
<path d="M32.1864 51.1953L31.3685 48.8597L30.2703 49.3645L32.1864 51.1953Z" fill="#FFCC00"/>
<path d="M32.1861 51.1953L30.2176 49.6956L31.0371 48.8072L32.1861 51.1953Z" fill="#FFCC00"/>
<path d="M29.3998 51.1953L31.3684 49.6956L30.5489 48.8072L29.3998 51.1953Z" fill="#FFCC00"/>
<path d="M29.3995 51.1953L30.2175 48.8597L31.3156 49.3645L29.3995 51.1953Z" fill="#FFCC00"/>
<path d="M30.7933 46.9102L31.5044 49.2805L30.3192 49.5176L30.7933 46.9102Z" fill="#FFCC00"/>
<path d="M30.7931 46.9102L30.082 49.2805L31.2672 49.5176L30.7931 46.9102Z" fill="#FFCC00"/>
<path d="M28.539 48.5474L31.0131 48.6036L30.8723 49.804L28.539 48.5474Z" fill="#FFCC00"/>
<path d="M28.5391 48.5463L30.5737 49.9551L31.1654 48.9012L28.5391 48.5463Z" fill="#FFCC00"/>
<path d="M38.1919 53.3169L35.7178 53.3731L35.8586 54.5735L38.1919 53.3169Z" fill="#FFCC00"/>
<path d="M38.1919 53.3159L36.1573 54.7247L35.5656 53.6707L38.1919 53.3159Z" fill="#FFCC00"/>
<path d="M37.3309 55.9688L36.513 53.6331L35.4148 54.138L37.3309 55.9688Z" fill="#FFCC00"/>
<path d="M37.3312 55.9687L35.3626 54.469L36.1821 53.5806L37.3312 55.9687Z" fill="#FFCC00"/>
<path d="M34.5443 55.9687L36.5129 54.469L35.6934 53.5806L34.5443 55.9687Z" fill="#FFCC00"/>
<path d="M34.5441 55.9688L35.362 53.6331L36.4602 54.138L34.5441 55.9688Z" fill="#FFCC00"/>
<path d="M35.9378 51.6797L36.6489 54.0501L35.4637 54.2871L35.9378 51.6797Z" fill="#FFCC00"/>
<path d="M35.9377 51.6797L35.2266 54.0501L36.4117 54.2871L35.9377 51.6797Z" fill="#FFCC00"/>
<path d="M33.6836 53.3208L36.1577 53.377L36.0169 54.5774L33.6836 53.3208Z" fill="#FFCC00"/>
<path d="M33.6836 53.3198L35.7182 54.7286L36.3099 53.6746L33.6836 53.3198Z" fill="#FFCC00"/>
<path d="M57.222 39.5898L57.9331 41.9602L56.7479 42.1973L57.222 39.5898Z" fill="#FFCC00"/>
<path d="M57.2219 39.5898L56.5107 41.9602L57.6959 42.1973L57.2219 39.5898Z" fill="#FFCC00"/>
<path d="M54.9668 41.2271L57.4409 41.2833L57.3001 42.4837L54.9668 41.2271Z" fill="#FFCC00"/>
<path d="M54.9668 41.226L57.0014 42.6348L57.5931 41.5809L54.9668 41.226Z" fill="#FFCC00"/>
<path d="M55.8287 43.8789L56.6467 41.5433L57.7448 42.0481L55.8287 43.8789Z" fill="#FFCC00"/>
<path d="M55.8285 43.8789L57.7971 42.3792L56.9776 41.4908L55.8285 43.8789Z" fill="#FFCC00"/>
<path d="M59.4766 41.2271L57.0025 41.2833L57.1433 42.4837L59.4766 41.2271Z" fill="#FFCC00"/>
<path d="M59.477 41.226L57.4424 42.6348L56.8507 41.5809L59.477 41.226Z" fill="#FFCC00"/>
<path d="M58.6146 43.8789L57.7967 41.5433L56.6985 42.0481L58.6146 43.8789Z" fill="#FFCC00"/>
<path d="M58.6144 43.8789L56.6458 42.3792L57.4653 41.4908L58.6144 43.8789Z" fill="#FFCC00"/>
<path d="M51.3302 31.668L49.3616 30.1683L50.1811 29.2799L51.3302 31.668Z" fill="#FFCC00"/>
<path d="M51.33 31.668L50.512 29.3323L49.4138 29.8372L51.33 31.668Z" fill="#FFCC00"/>
<path d="M52.1909 29.0151L50.1563 30.4239L49.5646 29.37L52.1909 29.0151Z" fill="#FFCC00"/>
<path d="M52.1909 29.0162L49.7168 29.0723L49.8576 30.2728L52.1909 29.0162Z" fill="#FFCC00"/>
<path d="M49.9368 27.3789L50.6479 29.7493L49.4628 29.9863L49.9368 27.3789Z" fill="#FFCC00"/>
<path d="M49.9367 27.3789L49.2256 29.7493L50.4108 29.9863L49.9367 27.3789Z" fill="#FFCC00"/>
<path d="M48.5434 31.668L50.5119 30.1683L49.6924 29.2799L48.5434 31.668Z" fill="#FFCC00"/>
<path d="M48.5431 31.668L49.361 29.3323L50.4592 29.8372L48.5431 31.668Z" fill="#FFCC00"/>
<path d="M47.6821 29.0151L49.7168 30.4239L50.3084 29.37L47.6821 29.0151Z" fill="#FFCC00"/>
<path d="M47.6821 29.0162L50.1562 29.0723L50.0154 30.2728L47.6821 29.0162Z" fill="#FFCC00"/>
<path d="M53.8155 36.9414L54.6335 34.6058L55.7317 35.1106L53.8155 36.9414Z" fill="#FFCC00"/>
<path d="M53.8158 36.9414L55.7844 35.4417L54.9649 34.5533L53.8158 36.9414Z" fill="#FFCC00"/>
<path d="M56.6026 36.9414L54.6341 35.4417L55.4536 34.5533L56.6026 36.9414Z" fill="#FFCC00"/>
<path d="M56.6024 36.9414L55.7845 34.6058L54.6863 35.1106L56.6024 36.9414Z" fill="#FFCC00"/>
<path d="M57.4634 34.2885L55.4287 35.6973L54.8371 34.6434L57.4634 34.2885Z" fill="#FFCC00"/>
<path d="M57.4634 34.2896L54.9893 34.3458L55.1301 35.5462L57.4634 34.2896Z" fill="#FFCC00"/>
<path d="M52.9546 34.2924L54.9892 35.7012L55.5809 34.6473L52.9546 34.2924Z" fill="#FFCC00"/>
<path d="M52.9546 34.2935L55.4287 34.3497L55.2879 35.5501L52.9546 34.2935Z" fill="#FFCC00"/>
<path d="M55.2092 32.6562L54.498 35.0266L55.6832 35.2637L55.2092 32.6562Z" fill="#FFCC00"/>
<path d="M55.2093 32.6562L55.9204 35.0266L54.7352 35.2637L55.2093 32.6562Z" fill="#FFCC00"/>
<path d="M52.9521 48.5435L55.4262 48.5997L55.2854 49.8001L52.9521 48.5435Z" fill="#FFCC00"/>
<path d="M52.9522 48.5424L54.9868 49.9512L55.5785 48.8973L52.9522 48.5424Z" fill="#FFCC00"/>
<path d="M53.8131 51.1953L54.6311 48.8597L55.7292 49.3645L53.8131 51.1953Z" fill="#FFCC00"/>
<path d="M53.8134 51.1953L55.7819 49.6956L54.9624 48.8072L53.8134 51.1953Z" fill="#FFCC00"/>
<path d="M56.5997 51.1953L54.6311 49.6956L55.4507 48.8072L56.5997 51.1953Z" fill="#FFCC00"/>
<path d="M56.5995 51.1953L55.7815 48.8597L54.6834 49.3645L56.5995 51.1953Z" fill="#FFCC00"/>
<path d="M55.2067 46.9102L54.4956 49.2805L55.6808 49.5176L55.2067 46.9102Z" fill="#FFCC00"/>
<path d="M55.2069 46.9102L55.918 49.2805L54.7328 49.5176L55.2069 46.9102Z" fill="#FFCC00"/>
<path d="M57.4605 48.5474L54.9864 48.6036L55.1272 49.804L57.4605 48.5474Z" fill="#FFCC00"/>
<path d="M57.4604 48.5463L55.4258 49.9551L54.8341 48.9012L57.4604 48.5463Z" fill="#FFCC00"/>
<path d="M47.8076 53.3169L50.2817 53.3731L50.1409 54.5735L47.8076 53.3169Z" fill="#FFCC00"/>
<path d="M47.8076 53.3159L49.8422 54.7247L50.4339 53.6707L47.8076 53.3159Z" fill="#FFCC00"/>
<path d="M48.6691 55.9649L49.487 53.6292L50.5852 54.1341L48.6691 55.9649Z" fill="#FFCC00"/>
<path d="M48.6688 55.9648L50.6374 54.4651L49.8179 53.5767L48.6688 55.9648Z" fill="#FFCC00"/>
<path d="M51.4557 55.9648L49.4871 54.4651L50.3066 53.5767L51.4557 55.9648Z" fill="#FFCC00"/>
<path d="M51.4559 55.9649L50.638 53.6292L49.5398 54.1341L51.4559 55.9649Z" fill="#FFCC00"/>
<path d="M50.0617 51.6797L49.3506 54.0501L50.5358 54.2871L50.0617 51.6797Z" fill="#FFCC00"/>
<path d="M50.0613 51.6797L50.7725 54.0501L49.5873 54.2871L50.0613 51.6797Z" fill="#FFCC00"/>
<path d="M52.3159 53.3169L49.8418 53.3731L49.9826 54.5735L52.3159 53.3169Z" fill="#FFCC00"/>
<path d="M52.3159 53.3159L50.2813 54.7247L49.6896 53.6707L52.3159 53.3159Z" fill="#FFCC00"/>
</g>
</g>
<g opacity="0.2">
<g clip-path="url(#clip7_457_6597)">
<path d="M539.349 14.3828L587.232 17.7311L583.883 65.6142L536 62.2659L539.349 14.3828Z" fill="white"/>
<path d="M539.349 14.3828L587.232 17.7311L586.227 32.096L538.344 28.7477L539.349 14.3828Z" fill="black"/>
<path d="M537.005 47.9023L584.888 51.2507L583.883 65.6156L536 62.2673L537.005 47.9023Z" fill="#006600"/>
<path d="M552.045 53.615L552.562 53.9519L568.233 30.6884C569.054 30.5653 569.557 29.8186 570.06 29.0719C570.397 28.5542 571.739 26.5729 572.436 23.9151C570.928 25.0775 569.621 26.4795 568.567 28.0653C568.064 28.812 567.56 29.5587 567.713 30.3814L552.045 53.615Z" fill="black" stroke="black" stroke-width="0.3"/>
<path d="M552.045 53.615L552.562 53.9519L568.233 30.6884C569.054 30.5653 569.557 29.8186 570.06 29.0719C570.397 28.5542 571.739 26.5729 572.436 23.9151C570.928 25.0775 569.621 26.4795 568.567 28.0653C568.064 28.812 567.56 29.5587 567.713 30.3814L552.045 53.615Z" fill="white"/>
<path d="M569.172 54.8103L568.612 55.0719L556.332 29.8538C555.536 29.6177 555.142 28.8083 554.747 27.9988C554.485 27.4392 553.433 25.2905 553.112 22.5615C554.444 23.9225 555.543 25.4928 556.366 27.2098C556.761 28.0193 557.155 28.8288 556.889 29.6221L569.172 54.8103Z" fill="black" stroke="black" stroke-width="0.3"/>
<path d="M569.172 54.8103L568.612 55.0719L556.332 29.8538C555.536 29.6177 555.142 28.8083 554.747 27.9988C554.485 27.4392 553.433 25.2905 553.112 22.5615C554.444 23.9225 555.543 25.4928 556.366 27.2098C556.761 28.0193 557.155 28.8288 556.889 29.6221L569.172 54.8103Z" fill="white"/>
<path d="M562.602 25.6338C560.806 25.5082 557.479 30.0873 556.414 32.4186L538.177 31.1434L537.172 45.5083L555.409 46.7836C556.149 49.2411 558.807 54.2387 560.602 54.3643C562.398 54.4898 565.726 49.9108 566.791 47.5794L585.056 48.8566L586.06 34.4917L567.786 33.2139C567.056 30.7569 564.398 25.7593 562.602 25.6338Z" fill="#BB0000"/>
<path d="M566.781 47.5789C567.866 45.3584 568.543 42.9611 568.78 40.5011C568.887 38.0321 568.551 35.5639 567.785 33.214C566.701 35.4345 566.024 37.8319 565.787 40.2918C565.679 42.7608 566.016 45.2291 566.781 47.5789Z" fill="black"/>
<path d="M555.418 46.7837C554.653 44.4339 554.316 41.9656 554.424 39.4966C554.661 37.0367 555.338 34.6393 556.423 32.4188C557.188 34.7687 557.525 37.2369 557.417 39.7059C557.18 42.1659 556.503 44.5632 555.418 46.7837Z" fill="black"/>
<path d="M561.471 41.7921C562.132 41.8384 562.725 41.0719 562.794 40.0802C562.863 39.0885 562.384 38.2471 561.722 38.2009C561.061 38.1547 560.469 38.9211 560.4 39.9128C560.33 40.9045 560.81 41.7459 561.471 41.7921Z" fill="white"/>
<path d="M561.775 41.7539C561.775 41.7539 562.805 44.2318 562.533 48.1223C562.26 52.0128 560.896 54.3232 560.896 54.3232L561.775 41.7539Z" fill="white"/>
<path d="M561.419 38.2383C561.419 38.2383 560.389 35.7604 560.661 31.8699C560.933 27.9794 562.298 25.669 562.298 25.669L561.419 38.2383Z" fill="white"/>
<path d="M561.176 41.7109C561.176 41.7109 559.812 44.0214 559.54 47.9119C559.268 51.8024 560.297 54.2802 560.297 54.2802L561.176 41.7109Z" fill="white"/>
<path d="M562.018 38.2812C562.018 38.2812 563.382 35.9708 563.654 32.0803C563.926 28.1898 562.897 25.7119 562.897 25.7119L562.018 38.2812Z" fill="white"/>
</g>
</g>
</g>
<defs>
<linearGradient id="paint0_linear_457_6597" x1="323.312" y1="21.0781" x2="323.312" y2="434.776" gradientUnits="userSpaceOnUse">
<stop stop-color="#EAEAEA"/>
<stop offset="0.716346" stop-color="#F5F5F5"/>
</linearGradient>
<clipPath id="clip0_457_6597">
<path d="M0 24C0 10.7452 10.7452 0 24 0H594C607.255 0 618 10.7452 618 24V376C618 389.255 607.255 400 594 400H24C10.7452 400 0 389.255 0 376V24Z" fill="white"/>
</clipPath>
<clipPath id="clip1_457_6597">
<path d="M202.312 145.379C202.312 127.706 216.638 113.379 234.312 113.379C251.985 113.379 266.312 127.706 266.312 145.379C266.312 163.052 251.985 177.379 234.312 177.379C216.638 177.379 202.312 163.052 202.312 145.379Z" fill="white"/>
</clipPath>
<clipPath id="clip2_457_6597">
<path d="M259.312 152.379C259.312 134.706 273.638 120.379 291.312 120.379C308.985 120.379 323.312 134.706 323.312 152.379C323.312 170.052 308.985 184.379 291.312 184.379C273.638 184.379 259.312 170.052 259.312 152.379Z" fill="white"/>
</clipPath>
<clipPath id="clip3_457_6597">
<path d="M311.503 166.215C311.503 148.542 325.83 134.215 343.503 134.215C361.176 134.215 375.503 148.542 375.503 166.215C375.503 183.888 361.176 198.215 343.503 198.215C325.83 198.215 311.503 183.888 311.503 166.215Z" fill="white"/>
</clipPath>
<clipPath id="clip4_457_6597">
<path d="M45.1642 302.389C52.4347 295.609 63.8248 296.007 70.6046 303.278C77.3844 310.548 76.9867 321.938 69.7162 328.718C62.4457 335.498 51.0557 335.1 44.2759 327.83C37.496 320.559 37.8938 309.169 45.1642 302.389Z" fill="white"/>
</clipPath>
<clipPath id="clip5_457_6597">
<path d="M556 356.809C556 343.554 566.745 332.809 580 332.809C593.255 332.809 604 343.554 604 356.809C604 370.063 593.255 380.809 580 380.809C566.745 380.809 556 370.063 556 356.809Z" fill="white"/>
</clipPath>
<clipPath id="clip6_457_6597">
<path d="M19 41.7344C19 28.4795 29.7452 17.7344 43 17.7344C56.2548 17.7344 67 28.4795 67 41.7344C67 54.9892 56.2548 65.7344 43 65.7344C29.7452 65.7344 19 54.9892 19 41.7344Z" fill="white"/>
</clipPath>
<clipPath id="clip7_457_6597">
<path d="M537.674 38.3244C538.599 25.1018 550.068 15.1324 563.29 16.057C576.513 16.9816 586.482 28.4501 585.558 41.6727C584.633 54.8952 573.164 64.8647 559.942 63.94C546.719 63.0154 536.75 51.5469 537.674 38.3244Z" fill="white"/>
</clipPath>
</defs>
</svg>
